<svg xmlns="http://www.w3.org/2000/svg" xmlns:xlink="http://www.w3.org/1999/xlink" width="200" zoomAndPan="magnify" viewBox="0 0 150 149.999998" height="200" preserveAspectRatio="xMidYMid meet" version="1.0"><defs><g/><clipPath id="451fee873d"><path d="M 4.9375 0 L 111.007812 0 L 111.007812 150 L 4.9375 150 Z M 4.9375 0 " clip-rule="nonzero"/></clipPath><clipPath id="02d4033d7c"><path d="M 28.78125 49.171875 L 87.441406 49.171875 L 87.441406 100.625 L 28.78125 100.625 Z M 28.78125 49.171875 " clip-rule="nonzero"/></clipPath><clipPath id="8df07a7e3c"><path d="M 31.101562 57.558594 C 26.355469 65.382812 29.699219 72.996094 33.90625 77.039062 L 58.492188 100.625 L 82.558594 77.125 C 86.46875 72.773438 87.964844 68.164062 87.132812 63.027344 C 85.984375 55.921875 80.128906 50.410156 72.898438 49.625 C 68.460938 49.144531 64.175781 50.402344 60.832031 53.179688 C 59.933594 53.929688 59.128906 54.765625 58.425781 55.671875 C 57.59375 54.636719 56.621094 53.691406 55.515625 52.851562 C 51.671875 49.929688 46.773438 48.769531 42.074219 49.671875 C 37.621094 50.53125 33.621094 53.40625 31.101562 57.558594 Z M 31.101562 57.558594 " clip-rule="nonzero"/></clipPath><clipPath id="9fc398e1d2"><path d="M 0.78125 0.199219 L 59.441406 0.199219 L 59.441406 51.625 L 0.78125 51.625 Z M 0.78125 0.199219 " clip-rule="nonzero"/></clipPath><clipPath id="8abf48b2e4"><path d="M 3.101562 8.558594 C -1.644531 16.382812 1.699219 23.996094 5.90625 28.039062 L 30.492188 51.625 L 54.558594 28.125 C 58.46875 23.773438 59.964844 19.164062 59.132812 14.027344 C 57.984375 6.921875 52.128906 1.410156 44.898438 0.625 C 40.460938 0.144531 36.175781 1.402344 32.832031 4.179688 C 31.933594 4.929688 31.128906 5.765625 30.425781 6.671875 C 29.59375 5.636719 28.621094 4.691406 27.515625 3.851562 C 23.671875 0.929688 18.773438 -0.230469 14.074219 0.671875 C 9.621094 1.53125 5.621094 4.40625 3.101562 8.558594 Z M 3.101562 8.558594 " clip-rule="nonzero"/></clipPath><clipPath id="d9cfa97aed"><rect x="0" width="60" y="0" height="52"/></clipPath><clipPath id="072252604b"><rect x="0" width="14" y="0" height="28"/></clipPath><clipPath id="be19ea3c27"><rect x="0" width="116" y="0" height="150"/></clipPath></defs><g transform="matrix(1, 0, 0, 1, 17, -0.000000000000007527)"><g clip-path="url(#be19ea3c27)"><g clip-path="url(#451fee873d)"><path fill="#e9e5d4" d="M 115.59375 145.242188 L 115.484375 145.589844 C 113.136719 146.359375 111.21875 147.910156 109.585938 149.988281 C 106.980469 149.988281 104.375 149.988281 101.769531 149.988281 C 101.769531 147.335938 99.429688 145.1875 96.542969 145.1875 C 93.65625 145.1875 91.316406 147.335938 91.316406 149.988281 L 82.335938 149.988281 C 82.335938 147.335938 79.996094 145.1875 77.109375 145.1875 C 74.222656 145.1875 71.882812 147.335938 71.882812 149.988281 L 63.128906 149.988281 C 63.128906 147.335938 60.789062 145.1875 57.902344 145.1875 C 55.015625 145.1875 52.675781 147.335938 52.675781 149.988281 L 43.917969 149.988281 C 43.917969 147.335938 41.578125 145.1875 38.691406 145.1875 C 35.804688 145.1875 33.464844 147.335938 33.464844 149.988281 L 24.710938 149.988281 C 24.710938 147.335938 22.371094 145.1875 19.484375 145.1875 C 16.597656 145.1875 14.257812 147.335938 14.257812 149.988281 C 11.648438 149.988281 9.042969 149.988281 6.4375 149.988281 C 4.808594 147.910156 2.886719 146.359375 0.542969 145.589844 L 0.542969 137.203125 C 3.195312 137.203125 5.34375 134.863281 5.34375 131.976562 C 5.34375 129.089844 3.195312 126.75 0.542969 126.75 L 0.542969 118.339844 C 3.195312 118.339844 5.34375 116 5.34375 113.113281 C 5.34375 110.226562 3.195312 107.886719 0.542969 107.886719 L 0.542969 107.742188 C 0.542969 105.136719 0.542969 102.53125 0.542969 99.925781 C 3.195312 99.925781 5.34375 97.585938 5.34375 94.699219 C 5.34375 91.8125 3.195312 89.472656 0.542969 89.472656 L 0.542969 80.714844 C 3.195312 80.714844 5.34375 78.375 5.34375 75.488281 C 5.34375 72.601562 3.195312 70.261719 0.542969 70.261719 L 0.542969 61.507812 C 3.195312 61.507812 5.34375 59.167969 5.34375 56.28125 C 5.34375 53.394531 3.195312 51.054688 0.542969 51.054688 L 0.542969 42.296875 C 3.195312 42.296875 5.34375 39.957031 5.34375 37.070312 C 5.34375 34.183594 3.195312 31.84375 0.542969 31.84375 L 0.542969 22.863281 C 3.195312 22.863281 5.34375 20.523438 5.34375 17.636719 C 5.34375 14.75 3.195312 12.410156 0.542969 12.410156 C 0.542969 9.804688 0.542969 7.199219 0.542969 4.59375 L 0.542969 4.402344 C 2.886719 3.636719 4.808594 2.082031 6.4375 0.00390625 C 9.042969 0.00390625 11.652344 0.00390625 14.257812 0.00390625 C 14.257812 2.65625 16.597656 4.804688 19.484375 4.804688 C 22.371094 4.804688 24.710938 2.65625 24.710938 0.00390625 L 33.464844 0.00390625 C 33.464844 2.65625 35.804688 4.804688 38.691406 4.804688 C 41.578125 4.804688 43.917969 2.65625 43.917969 0.00390625 L 52.675781 0.00390625 C 52.675781 2.65625 55.015625 4.804688 57.902344 4.804688 C 60.789062 4.804688 63.128906 2.65625 63.128906 0.00390625 L 71.882812 0.00390625 C 71.882812 2.65625 74.222656 4.804688 77.109375 4.804688 C 79.996094 4.804688 82.335938 2.65625 82.335938 0.00390625 L 91.316406 0.00390625 C 91.316406 2.65625 93.65625 4.804688 96.542969 4.804688 C 99.429688 4.804688 101.769531 2.65625 101.769531 0.00390625 C 104.375 0.00390625 106.980469 0.00390625 109.585938 0.00390625 C 111.21875 2.082031 113.136719 3.636719 115.484375 4.402344 L 115.59375 4.59375 C 115.59375 7.199219 115.59375 9.804688 115.59375 12.410156 C 112.941406 12.410156 110.792969 14.75 110.792969 17.636719 C 110.792969 20.523438 112.941406 22.863281 115.59375 22.863281 L 115.59375 31.84375 C 112.941406 31.84375 110.792969 34.183594 110.792969 37.070312 C 110.792969 39.957031 112.941406 42.296875 115.59375 42.296875 L 115.59375 51.054688 C 112.941406 51.054688 110.792969 53.394531 110.792969 56.28125 C 110.792969 59.167969 112.941406 61.507812 115.59375 61.507812 L 115.59375 70.261719 C 112.941406 70.261719 110.792969 72.601562 110.792969 75.488281 C 110.792969 78.375 112.941406 80.714844 115.59375 80.714844 L 115.59375 89.472656 C 112.941406 89.472656 110.792969 91.8125 110.792969 94.699219 C 110.792969 97.585938 112.941406 99.925781 115.59375 99.925781 C 115.59375 102.53125 115.59375 105.136719 115.59375 107.742188 L 115.59375 107.886719 C 112.941406 107.886719 110.792969 110.226562 110.792969 113.113281 C 110.792969 116 112.941406 118.339844 115.59375 118.339844 L 115.59375 126.75 C 112.941406 126.75 110.792969 129.089844 110.792969 131.976562 C 110.792969 134.863281 112.941406 137.203125 115.59375 137.203125 Z M 115.59375 145.242188 " fill-opacity="1" fill-rule="nonzero"/></g><path fill="#bc8e62" d="M 13.65625 72.984375 C 12.839844 56.425781 13.46875 37.589844 13.078125 18.746094 C 12.917969 11.140625 13.226562 10.777344 20.902344 11.597656 C 31.441406 12.722656 41.9375 11.449219 52.46875 11.957031 C 63.238281 12.480469 74.035156 12.292969 84.816406 12.332031 C 89.101562 12.347656 93.40625 12.347656 97.65625 11.960938 C 100.785156 11.675781 101.488281 13.105469 101.527344 15.546875 C 101.652344 23.417969 101.933594 31.289062 101.90625 39.160156 C 101.820312 64.867188 101.105469 90.566406 101.53125 116.28125 C 101.625 122.050781 101.441406 127.820312 101.691406 133.578125 C 101.832031 136.84375 101.183594 138.046875 97.230469 138.023438 C 80.78125 137.925781 64.34375 138.410156 47.894531 138.488281 C 37.011719 138.539062 26.109375 137.726562 15.242188 138.683594 C 13.289062 138.859375 12.921875 137.621094 12.941406 136.121094 C 12.964844 133.570312 12.890625 131.015625 13.027344 128.472656 C 13.96875 110.757812 13.378906 93.003906 13.65625 72.984375 Z M 13.65625 72.984375 " fill-opacity="1" fill-rule="nonzero"/><g clip-path="url(#02d4033d7c)"><g clip-path="url(#8df07a7e3c)"><g transform="matrix(1, 0, 0, 1, 28, 49)"><g clip-path="url(#d9cfa97aed)"><g clip-path="url(#9fc398e1d2)"><g clip-path="url(#8abf48b2e4)"><path fill="#e9e5d4" d="M 0.78125 0.375 L 59.441406 0.375 L 59.441406 51.625 L 0.78125 51.625 Z M 0.78125 0.375 " fill-opacity="1" fill-rule="nonzero"/></g></g></g></g></g></g><g transform="matrix(1, 0, 0, 1, 51, 61)"><g clip-path="url(#072252604b)"><g fill="#bc8e62" fill-opacity="1"><g transform="translate(0.682199, 19.45378)"><g><path d="M 3.640625 -12.4375 L 0.5 -13.953125 C 0.5 -14.015625 0.539062 -14.171875 0.625 -14.421875 C 0.707031 -14.671875 0.875 -15.003906 1.125 -15.421875 C 1.382812 -15.847656 1.710938 -16.242188 2.109375 -16.609375 C 2.503906 -16.984375 3.054688 -17.304688 3.765625 -17.578125 C 4.484375 -17.859375 5.296875 -18 6.203125 -18 C 7.859375 -18 9.285156 -17.515625 10.484375 -16.546875 C 11.679688 -15.578125 12.28125 -14.359375 12.28125 -12.890625 C 12.28125 -11.066406 11.070312 -9.644531 8.65625 -8.625 C 8.332031 -8.476562 8.125 -8.28125 8.03125 -8.03125 C 7.945312 -7.78125 7.90625 -7.429688 7.90625 -6.984375 L 7.90625 -5.78125 L 4.375 -5.78125 L 4.375 -8.125 C 4.375 -8.507812 4.382812 -8.8125 4.40625 -9.03125 C 4.4375 -9.257812 4.53125 -9.503906 4.6875 -9.765625 C 4.851562 -10.023438 5.082031 -10.257812 5.375 -10.46875 C 5.601562 -10.601562 5.910156 -10.765625 6.296875 -10.953125 C 6.679688 -11.148438 6.96875 -11.304688 7.15625 -11.421875 C 7.34375 -11.535156 7.515625 -11.71875 7.671875 -11.96875 C 7.828125 -12.21875 7.90625 -12.523438 7.90625 -12.890625 C 7.90625 -13.398438 7.738281 -13.816406 7.40625 -14.140625 C 7.070312 -14.472656 6.660156 -14.640625 6.171875 -14.640625 C 5.472656 -14.640625 4.910156 -14.414062 4.484375 -13.96875 C 4.066406 -13.519531 3.785156 -13.007812 3.640625 -12.4375 Z M 6.125 -4.59375 C 6.8125 -4.59375 7.394531 -4.351562 7.875 -3.875 C 8.351562 -3.394531 8.59375 -2.8125 8.59375 -2.125 C 8.59375 -1.445312 8.351562 -0.867188 7.875 -0.390625 C 7.394531 0.0859375 6.8125 0.328125 6.125 0.328125 C 5.457031 0.328125 4.882812 0.0859375 4.40625 -0.390625 C 3.925781 -0.867188 3.6875 -1.445312 3.6875 -2.125 C 3.6875 -2.8125 3.925781 -3.394531 4.40625 -3.875 C 4.882812 -4.351562 5.457031 -4.59375 6.125 -4.59375 Z M 6.125 -4.59375 "/></g></g></g></g></g></g></g></svg>