<svg xmlns="http://www.w3.org/2000/svg" xmlns:xlink="http://www.w3.org/1999/xlink" width="200" zoomAndPan="magnify" viewBox="0 0 150 149.999998" height="200" preserveAspectRatio="xMidYMid meet" version="1.0"><defs><clipPath id="95d55bc168"><path d="M 5 42 L 144 42 L 144 114 L 5 114 Z M 5 42 " clip-rule="nonzero"/></clipPath><clipPath id="e41eff6d46"><path d="M 144.878906 107.820312 L 56.914062 149.871094 L 5.480469 42.285156 L 93.449219 0.234375 Z M 144.878906 107.820312 " clip-rule="nonzero"/></clipPath><clipPath id="43d2c1e52e"><path d="M 144.878906 107.820312 L 56.914062 149.871094 L 5.480469 42.285156 L 93.449219 0.234375 Z M 144.878906 107.820312 " clip-rule="nonzero"/></clipPath></defs><g clip-path="url(#95d55bc168)"><g clip-path="url(#e41eff6d46)"><g clip-path="url(#43d2c1e52e)"><path fill="#000000" d="M 8.703125 49.320312 L 5.242188 42.074219 C 8.171875 42.039062 11.089844 42.210938 13.996094 42.589844 C 16.902344 42.96875 19.769531 43.550781 22.59375 44.339844 C 25.414062 45.125 28.167969 46.109375 30.851562 47.289062 C 33.535156 48.46875 36.121094 49.832031 38.609375 51.378906 C 41.097656 52.925781 43.464844 54.644531 45.710938 56.527344 C 47.957031 58.414062 50.054688 60.445312 52.011719 62.628906 C 53.964844 64.8125 55.753906 67.125 57.382812 69.5625 C 59.007812 72.003906 60.453125 74.542969 61.714844 77.1875 C 63.707031 81.371094 66.140625 85.277344 69.015625 88.90625 C 71.886719 92.539062 75.132812 95.804688 78.746094 98.703125 C 79.90625 99.632812 81.105469 100.535156 82.328125 101.375 C 84.375 102.789062 86.5 104.070312 88.703125 105.222656 C 89.574219 105.675781 90.402344 106.136719 91.328125 106.488281 C 92.214844 106.898438 93.113281 107.300781 94.050781 107.707031 C 94.960938 108.078125 95.882812 108.429688 96.820312 108.753906 C 98.777344 109.453125 100.769531 110.046875 102.789062 110.539062 C 103.519531 110.71875 104.222656 110.898438 104.988281 111.023438 C 105.753906 111.148438 106.230469 111.273438 106.855469 111.390625 C 107.816406 111.5625 108.789062 111.726562 109.761719 111.832031 L 111.238281 111.992188 L 112.734375 112.148438 C 113.714844 112.222656 114.699219 112.277344 115.683594 112.300781 C 116.464844 112.332031 117.246094 112.335938 118.035156 112.324219 C 122.859375 112.269531 127.613281 111.65625 132.292969 110.484375 C 133.195312 110.257812 134.082031 110.007812 134.96875 109.75 L 135.679688 109.523438 C 136.558594 109.253906 137.351562 108.988281 138.191406 108.6875 C 140.125 107.988281 142.0625 107.191406 143.960938 106.28125 C 142.183594 107.246094 140.367188 108.121094 138.503906 108.90625 C 136.640625 109.695312 134.746094 110.386719 132.816406 110.988281 C 130.886719 111.585938 128.929688 112.089844 126.953125 112.496094 C 124.972656 112.90625 122.976562 113.214844 120.96875 113.425781 C 118.957031 113.636719 116.941406 113.75 114.921875 113.765625 C 112.902344 113.777344 110.882812 113.691406 108.871094 113.507812 C 106.859375 113.324219 104.859375 113.039062 102.875 112.660156 C 100.890625 112.277344 98.929688 111.800781 96.992188 111.230469 C 95.054688 110.65625 93.148438 109.988281 91.277344 109.226562 C 89.402344 108.464844 87.574219 107.617188 85.785156 106.675781 C 83.996094 105.734375 82.257812 104.707031 80.570312 103.597656 C 78.882812 102.484375 77.253906 101.292969 75.683594 100.023438 C 74.109375 98.75 72.605469 97.40625 71.167969 95.988281 C 69.730469 94.566406 68.363281 93.082031 67.070312 91.527344 C 65.777344 89.972656 64.5625 88.363281 63.429688 86.6875 C 62.296875 85.015625 61.246094 83.292969 60.28125 81.515625 C 59.015625 79.183594 57.605469 76.945312 56.050781 74.796875 C 54.496094 72.648438 52.808594 70.605469 50.988281 68.675781 C 49.171875 66.742188 47.238281 64.9375 45.1875 63.253906 C 43.132812 61.574219 40.984375 60.027344 38.734375 58.625 C 36.484375 57.21875 34.152344 55.964844 31.742188 54.859375 C 29.328125 53.757812 26.855469 52.8125 24.320312 52.027344 C 21.789062 51.242188 19.214844 50.621094 16.601562 50.167969 C 13.988281 49.714844 11.355469 49.433594 8.703125 49.320312 Z M 8.703125 49.320312 " fill-opacity="1" fill-rule="nonzero"/></g></g></g></svg>